<svg xmlns="http://www.w3.org/2000/svg" viewBox="0 0 192 192"><defs><style>.aac3d79e-5216-46bf-9276-4c177113a730,.bc7389d8-7bf4-4f38-b3bc-d836b739dece{fill:#3a5163;}.a7509b70-80a9-40ad-ae75-928c0e79e639{fill:#5b7387;}.a2270039-e491-4c3e-bebb-2ec6dac8dcea,.a7509b70-80a9-40ad-ae75-928c0e79e639,.abe72cea-e752-4e0c-966a-38f6079bfead,.af92f3fc-1c60-4702-9484-7e7f7a6f307e,.b4727ef1-74fb-4d35-92cc-de85092ce79f,.bbeb344f-1e82-4f05-9a27-8e5f26fdbc54,.bc7389d8-7bf4-4f38-b3bc-d836b739dece,.be228668-9f62-4b24-b710-fc083d1b968a,.ecc15b6f-8e66-447c-87fc-162371c5cc5a,.f094e810-323e-4c9c-b5cb-6edcaf363c5d,.f7413d69-a086-4c04-ad16-7fce90a3d3bc,.f910d30b-f796-4058-a093-a7c488482d57{fill-rule:evenodd;}.ecc15b6f-8e66-447c-87fc-162371c5cc5a{fill:#ffb637;}.f910d30b-f796-4058-a093-a7c488482d57{fill:#5cc9bc;}.a52501df-4480-4ae6-8908-950c8f1548d4,.af92f3fc-1c60-4702-9484-7e7f7a6f307e{fill:#fafabe;}.be228668-9f62-4b24-b710-fc083d1b968a{fill:#2a3447;}.bbeb344f-1e82-4f05-9a27-8e5f26fdbc54{fill:#ff3877;}.f094e810-323e-4c9c-b5cb-6edcaf363c5d{fill:#fb9f7f;}.f00bf9ce-3629-410e-bd5b-45c1f2c6663a,.f7413d69-a086-4c04-ad16-7fce90a3d3bc{fill:#ff8e4b;}.b4727ef1-74fb-4d35-92cc-de85092ce79f{fill:#abe2bd;}.abe72cea-e752-4e0c-966a-38f6079bfead{fill:#fa3775;}.a2270039-e491-4c3e-bebb-2ec6dac8dcea{fill:#446178;}</style></defs><title>b-cat-1</title><g id="fc47cec5-82bc-416c-bac7-9963a5ac63f4" data-name="b-cat"><rect class="aac3d79e-5216-46bf-9276-4c177113a730" x="-0.2" y="0.33" width="192.2" height="191.67"/><path class="a7509b70-80a9-40ad-ae75-928c0e79e639" d="M43.22,200h-.47V191.9c0-15.85,4.08-31.24,11.54-43.63V117.88h0v-3l-14.95.08c-.26,0-.53,0-.79,0a8.73,8.73,0,0,1-8.08-12.06l-.59-.3a8.74,8.74,0,0,1,3.42-16.78,8.36,8.36,0,0,1,1.5.13,8.84,8.84,0,0,1,3.08,1.16c.35.18.7.34,1,.5.5.23,1,.44,1.52.65A48.5,48.5,0,0,0,54.3,91.77V78.34c0-1.17,0-2.35.14-3.53,0-11.06,0-24.11-.07-37.35v-.59l.09-.59A11.85,11.85,0,0,1,65.24,26.1h.15q.38,0,.75,0A11.4,11.4,0,0,1,75.49,31l4.44,5.51a16.79,16.79,0,0,1,4.83-.7l15.3,0V19.91l11.13,4.73a20,20,0,0,1,6.94,5,11.35,11.35,0,0,1,8.06-3.37h.65A12.08,12.08,0,0,1,138,36l.16.8v.81c-.07,11-.1,23.22-.1,38.52.06.76.09,1.43.1,2.09V91.78A47.74,47.74,0,0,0,152,88.59c.46-.18.95-.4,1.42-.61s1-.47,1.54-.74l1.7-.86h2.06a8.74,8.74,0,0,1,6,15.07l-.86.81-1,.54-1.25.61A8.72,8.72,0,0,1,156,114.9l-1.22.39L138.14,115v32.82c7.13,11.66,11.28,26.17,11.75,41.16,0,1,.05,1.92.05,2.89v8l-8,.1Z"/><g id="e855b364-000c-4e29-8065-8f9db66c2b89" data-name="Layer 1-2"><path class="ecc15b6f-8e66-447c-87fc-162371c5cc5a" d="M95.78,48.39h0c18.62,0,34.15,13.42,34.36,29.92v71.87c7.32,11.06,11.8,25.72,11.8,41.73V192H50.75v-.09c0-15.82,4.38-30.32,11.55-41.34V78.3C62.09,61.81,77.16,48.39,95.78,48.39Z"/><path class="f910d30b-f796-4058-a093-a7c488482d57" d="M95.78,44.71h0A37.42,37.42,0,0,1,113,48.84L123.32,35.9h0a3.33,3.33,0,0,1,3.06-1.63,4.07,4.07,0,0,1,3.76,3.28h0c-.22,35.77,0,77.58,0,113.36,7.32,11.06,11.8,25,11.8,41V192h-1.11v-.12h-90V192h-.12c0-15.82,4.38-30.4,11.55-41.43,0-37.72.31-75.43.08-113.15h0a3.92,3.92,0,0,1,3.54-3.34A3.34,3.34,0,0,1,69,35.7h0L79.33,48.51A36.79,36.79,0,0,1,95.78,44.71Z"/><path class="a52501df-4480-4ae6-8908-950c8f1548d4" d="M158.56,94.38a.74.74,0,0,1,.64,1.26q-.91.47-1.86.9c-.64.29-1.26.56-1.88.81a56.9,56.9,0,0,1-17.12,3.85,111.24,111.24,0,0,1-17.79-.23.73.73,0,0,1,.11-1.4,110.45,110.45,0,0,0,17.54.22A55.41,55.41,0,0,0,154.9,96q1-.37,1.83-.78t1.8-.87ZM38.78,106.92a.75.75,0,0,1-.93-.49.74.74,0,0,1,.49-.92.82.82,0,0,1,.44,0l34.49-.17a.75.75,0,0,1,.93.49.74.74,0,0,1-.49.92.82.82,0,0,1-.44,0ZM33.19,95.27a.74.74,0,0,1,.25-1.45.81.81,0,0,1,.38.19c.61.31,1.21.6,1.81.87s1.2.53,1.82.79a56.53,56.53,0,0,0,16.73,4.12,110.45,110.45,0,0,0,17.54-.22.72.72,0,0,1,.56.87.7.7,0,0,1-.45.53,110.86,110.86,0,0,1-17.76.23A57.73,57.73,0,0,1,36.92,97L35,96.17A17.16,17.16,0,0,1,33.19,95.27Zm120.44,10.59a.73.73,0,0,1,.48.92.76.76,0,0,1-.48.49l-34.55-.54a.74.74,0,0,1-.92-.49.72.72,0,0,1,.48-.92.66.66,0,0,1,.44,0Z"/><path class="af92f3fc-1c60-4702-9484-7e7f7a6f307e" d="M114.65,94.53,109,94.4A8.58,8.58,0,0,1,102.08,88V77.79a4.52,4.52,0,0,0,.06-.74h0a4.94,4.94,0,0,0-5-4.85H95.32a4.93,4.93,0,0,0-5,4.86h0v.23h0c0,3.56.08,7.06,0,10.7a8.58,8.58,0,0,1-6.92,6.44l-5.62.14a9.4,9.4,0,0,0-9.59,9.21v0h0a9.45,9.45,0,0,0,9.59,9.26H96.22v0h18.43a9.43,9.43,0,0,0,9.59-9.26h0a9.4,9.4,0,0,0-9.54-9.26Z"/><path class="be228668-9f62-4b24-b710-fc083d1b968a" d="M100.18,108.45a4.43,4.43,0,0,1-8.31,0l4.35-2.78Z"/><path class="bbeb344f-1e82-4f05-9a27-8e5f26fdbc54" d="M96.13,98.63h0c.8,0,4.92.57,4.27,1.11l-2.8,2.33a3.17,3.17,0,0,0-.65,1.07,5.16,5.16,0,0,0,1.71,3.42,6.44,6.44,0,0,0,8.47,0,5.08,5.08,0,0,0,1.72-3.76h0v-.08a.74.74,0,0,1,1.41,0v.09h0a6.5,6.5,0,0,1-2.21,4.81,7.85,7.85,0,0,1-10.37,0,6.9,6.9,0,0,1-1.55-2.05,6.9,6.9,0,0,1-1.55,2.05,7.85,7.85,0,0,1-10.37,0A6.48,6.48,0,0,1,82,102.81h0v-.09a.74.74,0,0,1,1.41,0v.09h0a5,5,0,0,0,1.72,3.76,6.42,6.42,0,0,0,8.46,0,5.09,5.09,0,0,0,1.71-3.4,3.57,3.57,0,0,0-.64-1.1L92,99.73C91.32,99.18,95.32,98.63,96.13,98.63Z"/><path class="f094e810-323e-4c9c-b5cb-6edcaf363c5d" d="M117.28,99.58a4.76,4.76,0,1,1-4.84,4.76,4.75,4.75,0,0,1,4.84-4.76h0Zm-41.87,0a4.76,4.76,0,1,1-4.8,4.76,4.77,4.77,0,0,1,4.8-4.76Z"/><path class="af92f3fc-1c60-4702-9484-7e7f7a6f307e" d="M116.27,52.5l6.3-7.7v0a1.19,1.19,0,0,1,.48-.56v-.05h0a1.9,1.9,0,0,1,1.51-.15,1.4,1.4,0,0,1,1.13,1.47l0,.05-.07,16.3a32.47,32.47,0,0,0-9.38-9.3Zm-40.21-.29L70,44.84v-.05a1.3,1.3,0,0,0-.48-.56v0h0A1.88,1.88,0,0,0,68,44a1.42,1.42,0,0,0-1.13,1.47l-.09,0L67,61.24a31.25,31.25,0,0,1,9.08-9Z"/><path class="f00bf9ce-3629-410e-bd5b-45c1f2c6663a" d="M74.83,85.61h6.54a3.73,3.73,0,0,1,3.73,3.72h0a3.73,3.73,0,0,1-3.73,3.73H74.83a3.73,3.73,0,0,1-3.73-3.73h0A3.73,3.73,0,0,1,74.83,85.61Z"/><path class="aac3d79e-5216-46bf-9276-4c177113a730" d="M79,89.2a3.34,3.34,0,0,1,2.34.92,3,3,0,0,1,1,2.21v.19h0v.18l0,.33H75.69l0-.33v-.37a3.08,3.08,0,0,1,1-2.21A3.38,3.38,0,0,1,79,89.2Z"/><path class="f7413d69-a086-4c04-ad16-7fce90a3d3bc" d="M117.86,85.61h-6.55a3.75,3.75,0,0,0-3.73,3.74h0a3.75,3.75,0,0,0,3.73,3.73h6.55a3.74,3.74,0,0,0,3.73-3.73h0A3.75,3.75,0,0,0,117.86,85.61Z"/><path class="aac3d79e-5216-46bf-9276-4c177113a730" d="M113.62,89.21a3.34,3.34,0,0,0-2.34.92,3,3,0,0,0-1,2.21v.18h0v.19l0,.32h6.54l0-.32v-.37a3,3,0,0,0-1-2.21A3.33,3.33,0,0,0,113.62,89.21Z"/><path class="bc7389d8-7bf4-4f38-b3bc-d836b739dece" d="M84.76,43.81c-4,0-7.58,2.7-7.58,6.64v1.79a7.23,7.23,0,0,0,7.3,7.06h23.87c5.72,0,8.07-6,8.41-10.71.47-6.58-3-14.15-8.7-16.59v5.31c0,3.69-2.69,5.9-5.9,6.46Z"/><path class="af92f3fc-1c60-4702-9484-7e7f7a6f307e" d="M50.75,192h49.94V166.77l-7.42-.46c-2.36-2.46-27.37-21.17-31-26.27v10.52c-7.17,11-11.55,25.52-11.55,41.34Z"/><path class="af92f3fc-1c60-4702-9484-7e7f7a6f307e" d="M130.14,135.13c-12.64,12.71-29.28,29.71-30.67,31.19l-7.46.45v25.11h48.82V192h1.11v-.09c0-16-4.48-29.92-11.8-41Z"/><polygon class="b4727ef1-74fb-4d35-92cc-de85092ce79f" points="70.49 167.75 73.45 175.83 93.16 167.55 93.16 166.79 70.49 167.75"/><path class="bc7389d8-7bf4-4f38-b3bc-d836b739dece" d="M69.12,165.58c.59,1.32,5.95,15.68,9.78,26.42H50.75l-1-.09A76.78,76.78,0,0,1,62.3,150.57Z"/><path class="a7509b70-80a9-40ad-ae75-928c0e79e639" d="M81.33,192H77.1c-5.16-5.62-9.59-11.6-15.25-17l4.43-5.39c0-.14-7.72-4.29-11.33-6.51,1.68-4.39,4.81-8.59,7.36-12.53Z"/><polygon class="b4727ef1-74fb-4d35-92cc-de85092ce79f" points="122.2 167.75 119.24 175.83 99.52 167.55 99.52 166.79 122.2 167.75"/><path class="bc7389d8-7bf4-4f38-b3bc-d836b739dece" d="M123.58,165.58c-.57,1.33-6,15.68-9.79,26.42h28.15l1-.09a76.63,76.63,0,0,0-12.8-41.73Z"/><path class="a7509b70-80a9-40ad-ae75-928c0e79e639" d="M111.36,192h4.23c5.16-5.62,9.59-11.6,15.25-17l-4.42-5.39c0-.14,7.71-4.29,11.32-6.51-1.74-4.54-5-8.87-7.64-12.93Z"/><polygon class="abe72cea-e752-4e0c-966a-38f6079bfead" points="97.98 172.8 102.71 163.31 101.78 163.28 89.96 163.28 94.7 172.8 91 192 101.69 192 97.98 172.8"/><path class="a2270039-e491-4c3e-bebb-2ec6dac8dcea" d="M122,85.11h.11l8-7.61v4.21L124,87.46c0,.17.09.34.14.51a9.76,9.76,0,0,1,.26,2.22,10.12,10.12,0,0,1-3.48,7.53h0a12.52,12.52,0,0,1-16.35,0h0a10.09,10.09,0,0,1-3.49-7.53,9.52,9.52,0,0,1,.23-2.13H91.21a9.84,9.84,0,0,1,.23,2.09,10.16,10.16,0,0,1-3.39,7.51,12,12,0,0,1-16,0,10.12,10.12,0,0,1-3.39-7.51,9.6,9.6,0,0,1,.25-2.21h0a4.58,4.58,0,0,1,.14-.53l-6.57-6.2V77l8.45,8.1Z"/></g></g></svg>