<svg id="Layer_1" data-name="Layer 1" xmlns="http://www.w3.org/2000/svg" xmlns:xlink="http://www.w3.org/1999/xlink" width="40" height="40" viewBox="0 0 40 40">
  <defs>
    <style>
      .cls-1 {
        fill: url(#linear-gradient);
      }
    </style>
    <linearGradient id="linear-gradient" x1="4.32213" y1="6.75066" x2="34.87347" y2="32.56955" gradientUnits="userSpaceOnUse">
      <stop offset="0" stop-color="#58c2a7"/>
      <stop offset="1" stop-color="#319798"/>
    </linearGradient>
  </defs>
  <title>gradient-green-logo-square-logo</title>
  <path class="cls-1" d="M0,0V40H40V0ZM20.63,32.46v.03c0,.01-.01.02-.01.03a.03677.03677,0,0,1-.01.03c0,.01,0,.02-.01.02v.03a.00979.00979,0,0,0-.00995.01c0,.01,0,.01-.01.02v.01l-.01.01-.01.02v.01c-.01.01-.01.01-.01.02h-.01a.035.035,0,0,1-.00995.02v.01c-.01,0-.01.01-.02.02l-.02.02v.01c-.01,0-.01.01-.02.01v.01c-.00995.01-.00995.01-.02.01,0,.01,0,.01-.01.02l-.01.01a.0098.0098,0,0,0-.01.01h-.01l-.02.02c-.01.01-.02.01-.03.02l-.02.02a.5933.5933,0,0,0-.08.04h-.01a.035.035,0,0,1-.02.01c-.01,0-.02.01-.03.01h-.01a.031.031,0,0,0-.02.01h-.02c-.01,0-.01.01-.02.01h-.04c-.01,0-.01.01-.02.01h-.13c-.01,0-.01,0-.02-.01h-.04a.03676.03676,0,0,1-.03-.01h-.03v-.01H19.8c-.01,0-.01,0-.01-.01h-.02a.00976.00976,0,0,1-.01-.01h-.02a.0098.0098,0,0,0-.01-.01c-.01,0-.01,0-.01-.01H19.7l-.01-.01c-.01,0-.01-.01-.02-.01h-.01c0-.01-.00995-.01-.02-.02a.03491.03491,0,0,1-.02-.01.0098.0098,0,0,0-.01-.01l-.01-.01a.00979.00979,0,0,1-.00995-.01c-.01,0-.01-.01-.02-.01v-.01a.035.035,0,0,1-.02-.00995.0098.0098,0,0,0-.01-.01L19.53,32.8a.0098.0098,0,0,0-.01-.01c0-.01-.01-.01-.01-.02A.00979.00979,0,0,1,19.5,32.76l-.01-.01a.035.035,0,0,1-.01-.02h-.01a.035.035,0,0,0-.00995-.02V32.7c-.01,0-.01-.01-.02-.02a.035.035,0,0,0-.01-.02v-.01c-.01-.01-.01-.01-.01-.02a.0098.0098,0,0,0-.01-.01V32.6c-.00995,0-.00995,0-.00995-.01v-.01c-.01-.00995-.01-.00995-.01-.02v-.01c0-.01-.01-.01-.01-.02v-.01c0-.00995,0-.00995-.01-.02v-.04c0-.01,0-.01-.01-.02V24.3l-3.95-5.84c-.00995-.00995-.02-.02-.02-.03-.01-.01-.01-.01-.01-.02a.07579.07579,0,0,1-.02-.04.0098.0098,0,0,1-.01-.01c0-.02-.00995-.03-.02-.05V18.3a.43473.43473,0,0,1-.01-.05v-.01a.07492.07492,0,0,1-.01-.05.12684.12684,0,0,1-.01-.06v-.01a.10849.10849,0,0,1,.01-.05V18c.01-.01.01-.03.02-.05v-.01c0-.01.01-.03.01-.04L15.35,17.89c0-.02.01-.03.02-.05v-.01c.01-.00995.02-.03.03-.04v-.01a.175.175,0,0,1,.04-.05.07815.07815,0,0,1,.04-.04v-.01c.02-.01.03-.03.05005-.04.00995-.01.03-.02.04-.03l.01-.01a.0098.0098,0,0,0,.01-.01.03092.03092,0,0,0,.02-.01.035.035,0,0,1,.02-.00995c.01-.01.02-.01.04-.02a.0098.0098,0,0,0,.01-.01c.02,0,.03-.01.04-.01s.01-.01.02-.01a.03692.03692,0,0,0,.03-.00995h.02c.01,0,.02-.01.03-.01h.02c.00995,0,.02-.01.04-.01h.13c.01,0,.01.01.02.01h.03a.03677.03677,0,0,1,.03.01H16.1a13.74239,13.74239,0,0,1,.06.02h.01c.02.01.05.02.07.03.01.01.02.01.03.02h.01l.02.02c.01,0,.01,0,.01.01a.035.035,0,0,1,.02.01.0098.0098,0,0,1,.01.01c.00995,0,.00995.01.02.01a.00979.00979,0,0,0,.01.00995l.02.02.01.01a.00976.00976,0,0,0,.00995.01l.02.02,5.19,6a.61749.61749,0,0,1,.15.49005ZM24.7,21.88a.10862.10862,0,0,1-.01.05V22c-.01.01-.01.03-.02.05v.01c0,.01-.01.03-.01.04l-.00995.01c0,.02-.01.03-.02.05v.01c-.01.01-.02.03-.03.04v.01a.17342.17342,0,0,1-.04.05.17648.17648,0,0,1-.04.05c-.02.00995-.03.03-.05.04a.21493.21493,0,0,1-.05.04l-.01.01a.07588.07588,0,0,0-.04.02l-.01.01a.17007.17007,0,0,0-.05.02H24.3a.07573.07573,0,0,1-.04.02h-.01c-.02.01-.04.01-.06.02a.12672.12672,0,0,0-.06.01H24a.43473.43473,0,0,0-.05-.01h-.01c-.02,0-.03-.01-.05-.01h-.01c-.01-.01-.03-.01-.05-.02h-.01a.07581.07581,0,0,0-.04-.02.0098.0098,0,0,1-.01-.01c-.02-.01-.03-.01-.05-.02,0-.01,0-.01-.00995-.01-.01-.01-.03-.02-.04-.03h-.01c-.00995-.02-.03-.03-.04-.04l-.05-.05-5.19-6a.61742.61742,0,0,1-.15-.49l1.14-8.26a.09012.09012,0,0,1,.01-.05V7.48a.432.432,0,0,0,.01-.05.16838.16838,0,0,0,.02-.05.0098.0098,0,0,0,.01-.01.07589.07589,0,0,1,.02-.04V7.32a.13709.13709,0,0,0,.03-.04.13863.13863,0,0,1,.03-.04.0098.0098,0,0,1,.01-.01c0-.01.02-.02.03-.03V7.19c.01-.01.03-.02.04-.03V7.15a.1377.1377,0,0,0,.04-.03h.01a.63577.63577,0,0,1,.14-.08h.01c.00995-.01.03-.01.04-.02h.01c.02,0,.03-.00995.05-.00995h.01A.10862.10862,0,0,0,19.94,7h.11a.03677.03677,0,0,1,.03.01h.04a.03691.03691,0,0,1,.03.00995h.03v.01h.03v.01h.02l.01.01h.02a.0098.0098,0,0,0,.01.01c.01,0,.01,0,.02.01A.00979.00979,0,0,1,20.3,7.08h.01c.01,0,.01.01.02.01h.01c0,.01.00995.01.02.02a.031.031,0,0,0,.02.01c0,.01,0,.01.01.01l.01.01A.00974.00974,0,0,1,20.41,7.15c.01,0,.01.01.02.01v.01a.035.035,0,0,1,.02.01,4.70229,4.70229,0,0,1,.02.02c0,.00995.01.00995.01.02a.0098.0098,0,0,1,.01.01l.02.02c0,.01.01.01.01.02h.01a.035.035,0,0,0,.00995.02V7.3c.01,0,.01.01.02.02,0,.00995.01.02.01.03a.031.031,0,0,1,.01.02.0098.0098,0,0,0,.01.01V7.4C20.6,7.4,20.6,7.4,20.6,7.41v.01c.01.01.01.01.01.02v.01c0,.00995.01.00995.01.02v.01c0,.01,0,.01.01.02v.04c0,.01,0,.01.01.02V15.7l3.95,5.84a.05212.05212,0,0,1,.02.04c.01,0,.01,0,.01.01a.076.076,0,0,1,.02.04.0098.0098,0,0,1,.01.01c0,.02.00995.03.02.05v.01a.42934.42934,0,0,1,.01.05v.01a.07475.07475,0,0,1,.01.05v.01a.07475.07475,0,0,1,.01.05Z"/>
</svg>
